<?xml version="1.0" encoding="UTF-8"?>
<svg xmlns="http://www.w3.org/2000/svg" version="1.1" viewBox="0 0 500 500">
  <defs>
    <style>
      .cls-1 {
        stroke: #263238;
      }

      .cls-1, .cls-2, .cls-3, .cls-4, .cls-5, .cls-6 {
        fill: none;
      }

      .cls-1, .cls-2, .cls-4, .cls-5, .cls-6 {
        stroke-miterlimit: 10;
      }

      .cls-7, .cls-8, .cls-9 {
        fill: #00b8d4;
      }

      .cls-10 {
        fill: #263238;
      }

      .cls-11 {
        fill: #eee;
      }

      .cls-2 {
        stroke: #00b8d4;
        stroke-width: 4px;
      }

      .cls-12 {
        font-family: MyriadPro-Bold, 'Myriad Pro';
        font-size: 12.18px;
        font-weight: 700;
      }

      .cls-12, .cls-13 {
        fill: #fff;
      }

      .cls-8, .cls-14, .cls-15, .cls-16 {
        mix-blend-mode: screen;
      }

      .cls-17, .cls-18 {
        fill: #e0e0e0;
      }

      .cls-13 {
        font-family: SFProText-Regular, 'SF Pro Text';
        font-size: 32.92px;
      }

      .cls-19 {
        fill: #ff4081;
      }

      .cls-3 {
        stroke-linejoin: round;
      }

      .cls-3, .cls-4 {
        stroke: #fff;
        stroke-linecap: round;
      }

      .cls-3, .cls-4, .cls-5 {
        stroke-width: 2px;
      }

      .cls-5, .cls-6 {
        stroke: #e6e6e6;
      }

      .cls-20 {
        isolation: isolate;
      }

      .cls-14, .cls-21 {
        fill: #00899e;
      }

      .cls-16 {
        fill: #ff89b1;
      }

      .cls-22 {
        fill: #e33973;
      }

      .cls-22, .cls-18, .cls-9 {
        mix-blend-mode: multiply;
      }

      .cls-6 {
        stroke-width: 3px;
      }

      .cls-23 {
        fill: #ff6d00;
      }

      .cls-24 {
        fill: #e6e6e6;
      }
    </style>
  </defs>
  <!-- Generator: Adobe Illustrator 28.6.0, SVG Export Plug-In . SVG Version: 1.2.0 Build 709)  -->
  <g class="cls-20">
    <g id="OBJECTS">
      <g>
        <path class="cls-6" d="M340.91,292.77h11.04c4.29,0,7.77-3.48,7.77-7.77v-11.73c0-7.29,5.91-13.19,13.19-13.19h58.18c8.36,0,15.13-6.77,15.13-15.13h0c0-8.36-6.77-15.13-15.13-15.13h-59.42c-10.19,0-18.46-8.26-18.46-18.46v-47.41c0-11.99-9.72-21.71-21.71-21.71h0c-11.99,0-21.71,9.72-21.71,21.71v49.94c0,9.19-7.45,16.65-16.65,16.65H111.8c-8.98,0-16.25,7.28-16.25,16.25h0c0,8.98,7.28,16.25,16.25,16.25h19.9c7.21,0,13.06,5.85,13.06,13.06v70.46c0,17.31,14.03,31.34,31.34,31.34h13.58"/>
        <g>
          <path class="cls-7" d="M346.67,277.58c-7.92-9.23-19.46-14.53-31.61-14.53h-111.15c-12.15,0-23.7,5.3-31.61,14.53-2.26,2.63-3.44,6.02-3.44,9.48v13.63c0,1.41,1.14,2.55,2.55,2.55h36.92c1.41,0,2.55-1.14,2.55-2.55v-6.59c0-4.87-1-9.7-2.93-14.17h103.06c-1.93,4.48-2.93,9.3-2.93,14.17v6.59c0,1.41,1.14,2.55,2.55,2.55h36.92c1.41,0,2.55-1.14,2.55-2.55v-13.63c0-3.46-1.19-6.85-3.44-9.48Z"/>
          <g class="cls-15">
            <path class="cls-7" d="M346.49,277.37c-7.91-9.1-19.37-14.32-31.43-14.32h-111.15c-12.05,0-23.52,5.22-31.43,14.32-2.34,2.69-3.62,6.13-3.62,9.69v3.99c0-3.56,1.29-7,3.62-9.69,7.91-9.1,19.37-14.32,31.43-14.32h111.15c12.05,0,23.52,5.22,31.43,14.32,2.34,2.69,3.62,6.13,3.62,9.69v-3.99c0-3.56-1.29-7-3.62-9.69Z"/>
          </g>
          <path class="cls-7" d="M285.41,303.24h-51.86s-43.87,17.23-43.87,74.67h139.59c0-57.43-43.87-74.67-43.87-74.67Z"/>
          <path class="cls-8" d="M285.41,303.24h-6.95s43.87,17.23,43.87,74.67h6.95c0-57.43-43.87-74.67-43.87-74.67Z"/>
          <path class="cls-9" d="M296.42,317.02c0-2.77-.32-5.47-.89-8.07-5.86-4.04-10.12-5.71-10.12-5.71h-51.86s-4.26,1.67-10.12,5.71c-.58,2.6-.89,5.29-.89,8.07,0,20.4,16.54,36.94,36.94,36.94s36.94-16.54,36.94-36.94Z"/>
          <rect class="cls-21" x="189.69" y="377.91" width="139.59" height="14.14"/>
          <rect class="cls-14" x="322.33" y="377.91" width="6.95" height="14.14"/>
          <circle class="cls-17" cx="259.48" cy="311.95" r="36.94"/>
          <circle class="cls-18" cx="259.48" cy="314.36" r="17.54"/>
          <path class="cls-18" d="M259.48,278.12c19.88,0,36.09,15.71,36.9,35.39.02-.52.04-1.03.04-1.55,0-20.4-16.54-36.94-36.94-36.94s-36.94,16.54-36.94,36.94c0,.52.02,1.04.04,1.55.82-19.68,17.02-35.39,36.9-35.39Z"/>
          <circle class="cls-19" cx="259.48" cy="311.95" r="17.54" transform="translate(-88.03 521.42) rotate(-81.33)"/>
          <path class="cls-16" d="M259.48,297.1c9.23,0,16.78,7.14,17.47,16.19.03-.44.07-.89.07-1.34,0-9.68-7.85-17.54-17.54-17.54s-17.54,7.85-17.54,17.54c0,.45.03.9.07,1.34.69-9.06,8.24-16.19,17.47-16.19Z"/>
          <circle class="cls-10" cx="259.48" cy="284.82" r="5.07"/>
          <path class="cls-10" d="M264.55,339.08c0,2.8-2.27,5.07-5.07,5.07s-5.07-2.27-5.07-5.07,2.27-5.07,5.07-5.07,5.07,2.27,5.07,5.07Z"/>
          <path class="cls-10" d="M243.89,289.18c1.98,1.98,1.98,5.19,0,7.17s-5.19,1.98-7.17,0c-1.98-1.98-1.98-5.19,0-7.17,1.98-1.98,5.19-1.98,7.17,0Z"/>
          <path class="cls-10" d="M282.25,327.55c1.98,1.98,1.98,5.19,0,7.17-1.98,1.98-5.19,1.98-7.17,0-1.98-1.98-1.98-5.19,0-7.17,1.98-1.98,5.19-1.98,7.17,0Z"/>
          <path class="cls-10" d="M232.36,306.88c2.8,0,5.07,2.27,5.07,5.07s-2.27,5.07-5.07,5.07-5.07-2.27-5.07-5.07,2.27-5.07,5.07-5.07Z"/>
          <path class="cls-10" d="M286.61,306.88c2.8,0,5.07,2.27,5.07,5.07s-2.27,5.07-5.07,5.07-5.07-2.27-5.07-5.07,2.27-5.07,5.07-5.07Z"/>
          <path class="cls-10" d="M236.72,327.55c1.98-1.98,5.19-1.98,7.17,0,1.98,1.98,1.98,5.19,0,7.17-1.98,1.98-5.19,1.98-7.17,0s-1.98-5.19,0-7.17Z"/>
          <path class="cls-10" d="M275.08,289.18c1.98-1.98,5.19-1.98,7.17,0,1.98,1.98,1.98,5.19,0,7.17-1.98,1.98-5.19,1.98-7.17,0-1.98-1.98-1.98-5.19,0-7.17Z"/>
        </g>
        <rect class="cls-23" x="139.52" y="392.05" width="239.93" height="9.3"/>
        <polygon class="cls-7" points="245.37 194.12 197.65 168.41 197.65 214.68 245.37 214.68 293.09 214.68 293.09 168.41 245.37 194.12"/>
        <polygon class="cls-19" points="197.65 168.41 245.37 139 293.09 168.41 245.37 194.12 197.65 168.41"/>
        <polygon class="cls-22" points="197.65 168.41 293.09 168.41 245.37 194.12 197.65 168.41"/>
        <polygon class="cls-24" points="282.69 125.29 245.37 125.29 208.05 125.29 208.05 174.02 245.37 194.12 245.37 194.12 245.37 194.12 245.37 194.12 245.37 194.12 282.69 174.02 282.69 125.29"/>
        <line class="cls-1" x1="224.74" y1="137.54" x2="273.87" y2="137.54"/>
        <line class="cls-1" x1="216.87" y1="142.24" x2="273.87" y2="142.24"/>
        <line class="cls-1" x1="216.87" y1="146.94" x2="273.87" y2="146.94"/>
        <line class="cls-1" x1="216.87" y1="151.65" x2="273.87" y2="151.65"/>
        <line class="cls-1" x1="216.87" y1="156.35" x2="273.87" y2="156.35"/>
        <line class="cls-1" x1="216.87" y1="161.06" x2="273.87" y2="161.06"/>
        <line class="cls-1" x1="216.87" y1="165.76" x2="273.87" y2="165.76"/>
        <line class="cls-1" x1="216.87" y1="170.47" x2="261.11" y2="170.47"/>
        <circle class="cls-19" cx="398.54" cy="185.21" r="28.86" transform="translate(127.71 531.32) rotate(-76.88)"/>
        <text class="cls-13" transform="translate(383.34 196.79)"><tspan x="0" y="0">@</tspan></text>
        <g>
          <g>
            <circle class="cls-2" cx="117.5" cy="159.11" r="52.65" transform="translate(-58.85 248.67) rotate(-80.48)"/>
            <ellipse class="cls-2" cx="117.5" cy="159.11" rx="32.09" ry="52.65"/>
            <line class="cls-2" x1="117.5" y1="106.45" x2="117.5" y2="211.76"/>
            <line class="cls-2" x1="64.85" y1="159.11" x2="170.15" y2="159.11"/>
          </g>
          <g>
            <circle class="cls-19" cx="157.62" cy="122.4" r="23.75" transform="translate(2.58 248.05) rotate(-76.85)"/>
            <g>
              <path class="cls-4" d="M143.64,113.2c2.97-4.41,8-7.32,13.72-7.32,9.12,0,16.52,7.4,16.52,16.52s-7.4,16.52-16.52,16.52c-7.71,0-14.19-5.28-16.01-12.42"/>
              <polyline class="cls-3" points="142.89 108.92 143.64 113.2 148.34 112.91"/>
              <text class="cls-12" transform="translate(145.92 126.31)"><tspan x="0" y="0">24h</tspan></text>
            </g>
          </g>
        </g>
        <g>
          <rect class="cls-7" x="43.4" y="297.16" width="84.01" height="53.04" rx="1.96" ry="1.96"/>
          <rect class="cls-24" x="33" y="288.38" width="84.01" height="53.04" rx="1.96" ry="1.96"/>
          <g>
            <g>
              <circle class="cls-19" cx="52.78" cy="307.31" r="12.55"/>
              <g>
                <circle class="cls-11" cx="52.78" cy="302.97" r="4.21"/>
                <path class="cls-11" d="M52.78,308.13c-6.51,0-5.56,7.74-5.56,7.74h11.13s.95-7.74-5.56-7.74Z"/>
              </g>
            </g>
            <line class="cls-1" x1="72.33" y1="299.48" x2="109.79" y2="299.48"/>
            <line class="cls-1" x1="72.33" y1="306.15" x2="109.79" y2="306.15"/>
            <line class="cls-1" x1="72.33" y1="312.82" x2="109.79" y2="312.82"/>
            <line class="cls-1" x1="72.33" y1="319.49" x2="109.79" y2="319.49"/>
            <line class="cls-1" x1="40.23" y1="326.16" x2="109.79" y2="326.16"/>
            <line class="cls-1" x1="40.23" y1="332.83" x2="109.79" y2="332.83"/>
          </g>
        </g>
        <g>
          <g>
            <rect class="cls-19" x="347.31" y="305.21" width="90.02" height="55.53" rx="10.96" ry="10.96" transform="translate(784.63 665.96) rotate(180)"/>
            <polygon class="cls-19" points="372.14 360.75 358.03 375.58 359.2 360.75 372.14 360.75"/>
          </g>
          <g>
            <rect class="cls-24" x="376.98" y="290.09" width="90.02" height="55.53" rx="10.96" ry="10.96"/>
            <polygon class="cls-24" points="442.17 345.62 456.28 360.46 455.1 345.62 442.17 345.62"/>
            <circle class="cls-10" cx="399.64" cy="317.85" r="4.7"/>
            <circle class="cls-10" cx="421.99" cy="317.85" r="4.7"/>
            <path class="cls-10" d="M449.04,317.85c0,2.6-2.11,4.7-4.7,4.7s-4.7-2.11-4.7-4.7,2.11-4.7,4.7-4.7,4.7,2.11,4.7,4.7Z"/>
          </g>
        </g>
        <path class="cls-5" d="M307.48,129.93c0,2-1.62,3.62-3.62,3.62s-3.62-1.62-3.62-3.62,1.62-3.62,3.62-3.62,3.62,1.62,3.62,3.62Z"/>
        <path class="cls-5" d="M89.02,271.39c0,2-1.62,3.62-3.62,3.62s-3.62-1.62-3.62-3.62,1.62-3.62,3.62-3.62,3.62,1.62,3.62,3.62Z"/>
        <path class="cls-5" d="M179.51,208.15c0,2-1.62,3.62-3.62,3.62s-3.62-1.62-3.62-3.62,1.62-3.62,3.62-3.62,3.62,1.62,3.62,3.62Z"/>
        <path class="cls-5" d="M447.95,214.07c0,2-1.62,3.62-3.62,3.62s-3.62-1.62-3.62-3.62,1.62-3.62,3.62-3.62,3.62,1.62,3.62,3.62Z"/>
        <path class="cls-5" d="M386.95,277.05c0,2-1.62,3.62-3.62,3.62s-3.62-1.62-3.62-3.62,1.62-3.62,3.62-3.62,3.62,1.62,3.62,3.62Z"/>
        <path class="cls-5" d="M173.77,353.96c0,2-1.62,3.62-3.62,3.62s-3.62-1.62-3.62-3.62,1.62-3.62,3.62-3.62,3.62,1.62,3.62,3.62Z"/>
      </g>
    </g>
  </g>
</svg>