<?xml version="1.0" encoding="UTF-8"?>
<svg xmlns="http://www.w3.org/2000/svg" version="1.1" viewBox="0 0 1000 250">
  <defs>
    <style>
      .cls-1 {
        fill: none;
        stroke: #000;
        stroke-miterlimit: 10;
      }

      .cls-2, .cls-3 {
        fill: #fff;
      }

      .cls-3, .cls-4 {
        display: none;
      }
    </style>
  </defs>
  <!-- Generator: Adobe Illustrator 28.6.0, SVG Export Plug-In . SVG Version: 1.2.0 Build 709)  -->
  <g>
    <g id="Layer_1">
      <path class="cls-2" d="M257.6,175.5c-8.6,0-16.2-1.6-22.8-4.8s-11.7-7.6-15.4-13.4c-3.7-5.8-5.5-12.5-5.5-20.2v-61.4h18.4c0-.1,0,61,0,61,0,3.7.7,7,2.1,9.9,1.4,2.9,3.2,5.4,5.6,7.4s5.1,3.5,8.1,4.6c3.1,1,6.2,1.6,9.5,1.6s6.6-.5,9.6-1.6c3-1.1,5.7-2.6,8.1-4.6,2.4-2,4.2-4.5,5.6-7.4s2-6.2,2-9.8v-61.1h18.4v61.5c0,7.8-1.9,14.5-5.5,20.2-3.7,5.8-8.8,10.2-15.4,13.4s-14.1,4.8-22.8,4.8h0Z"/>
      <path class="cls-2" d="M396.2,173.5h-20.5l-18.4-34.2h-25.8v34.2h-18.1v-49.5h44c1,0,2.1,0,3.4-.1,1.2,0,2.4-.3,3.5-.6,3-.7,5.4-1.9,7.1-3.6,1.7-1.7,2.9-3.7,3.7-5.8.8-2.2,1.1-4.3,1.1-6.4s-.3-4.2-1.1-6.4c-.7-2.2-2-4.2-3.7-5.9-1.8-1.7-4.1-2.9-7.1-3.6-1.1-.3-2.2-.5-3.5-.5s-2.4,0-3.4,0h-44v-15.3h44.8c1,0,2.4,0,4.1,0s3.2.2,4.6.4c6.3.9,11.5,2.7,15.5,5.6,4.1,2.9,7.1,6.6,9.1,11,2,4.4,3,9.3,3,14.7,0,7.9-2.2,14.8-6.7,20.5-2.9,3.7-6.8,6.5-11.6,8.4l20,37.1h0Z"/>
      <path class="cls-2" d="M403.9,173.5v-97.9h43c7.3,0,13.3,1.3,18,4,4.7,2.7,8.2,6,10.5,10.2,2.3,4.1,3.4,8.4,3.4,12.8s-1.4,10-4.2,13.7c-2.8,3.8-6.7,6.3-11.6,7.6v-3.4c6.8,1.4,12,4.3,15.5,8.8,3.5,4.4,5.3,9.5,5.3,15.2s-1.2,10.9-3.7,15.2-6.1,7.8-11,10.2c-4.8,2.4-10.8,3.7-18,3.7h-47.3ZM422.2,114.7h24.4c2.6,0,4.9-.4,7-1.4s3.7-2.2,4.9-4c1.2-1.8,1.8-3.9,1.8-6.5s-1.2-6.2-3.6-8.5c-2.4-2.3-5.8-3.4-10.1-3.4h-24.4v23.8h0ZM422.2,158.1h26.7c3.2,0,6-.6,8.5-1.7,2.5-1.2,4.5-2.8,5.9-4.9,1.4-2.1,2.1-4.6,2.1-7.5s-.6-5-1.9-7.1c-1.2-2.1-3.1-3.8-5.5-5-2.4-1.2-5.3-1.9-8.7-1.9h-27.2v28.1h0Z"/>
      <path class="cls-2" d="M588.3,137l1.4,1.9,1.9-1.9h-3.3,0ZM564.6,139.9v-2.9h-1l1,2.9ZM563.6,137l1,2.9v-2.9h-1Z"/>
      <path class="cls-2" d="M601.5,75.7v69l-50.3-68.9h-30.2l-34.2,97.9h18.7l7.4-21.2h49.9l13.6-13.1,25.1,34.3h18.4v-97.9h-18.4ZM518.3,137l14.6-41.8,1.3-3.7,16.1,45.5h-31.9ZM551.2,137v-32.5l12.4,17,11.2,15.5h-23.7,0Z"/>
      <path class="cls-3" d="M682.3,175.5c-10.8,0-20.1-2.1-27.8-6.4-7.7-4.3-13.7-10.2-17.8-17.9s-6.2-16.5-6.2-26.6,2.1-19,6.2-26.7c4.1-7.7,10.1-13.6,17.8-17.9s17-6.4,27.8-6.4,20.1,2.1,27.9,6.4,13.7,10.2,17.8,17.9,6.2,16.5,6.2,26.7-2.1,19-6.2,26.6-10.1,13.6-17.8,17.9-17,6.4-27.9,6.4h0ZM682.3,160.1c7.3,0,13.3-1.4,18.2-4.4,4.8-2.9,8.5-7.1,10.9-12.4,2.4-5.4,3.7-11.6,3.7-18.8s-1.2-13.4-3.7-18.7c-2.4-5.3-6.1-9.4-10.9-12.3-4.8-2.9-10.9-4.5-18.2-4.6-7.3,0-13.3,1.4-18.1,4.3s-8.4,7.1-10.9,12.4-3.7,11.6-3.7,18.8,1.2,13.4,3.6,18.7c2.4,5.3,6,9.4,10.9,12.3,4.8,2.9,10.9,4.5,18.2,4.6h0Z"/>
      <rect class="cls-2" x="551.5" y="102.4" width="1.7" height="36.8"/>
      <line class="cls-2" x1="318.5" y1="124.6" x2="316.8" y2="124.6"/>
      <line class="cls-2" x1="318.5" y1="124.6" x2="316.8" y2="124.6"/>
      <g id="Layer_3" class="cls-4">
        <path d="M176.3,154.3v-58.2h9.7l22.3,41.2,22.3-41.2h9.7v58.2h-10.1v-37.3l-19.8,37.3h-4.3l-19.7-37.3v37.3h-10.1Z"/>
        <path d="M273.4,155.5c-5.1,0-9.6-.9-13.5-2.8-3.9-1.9-6.9-4.5-9.1-8-2.2-3.4-3.3-7.4-3.3-12v-36.5h10.9c0,0,0,36.2,0,36.2,0,2.2.4,4.1,1.2,5.9.8,1.7,1.9,3.2,3.3,4.4s3,2.1,4.8,2.7,3.7.9,5.6.9,3.9-.3,5.7-.9c1.8-.6,3.4-1.6,4.8-2.8s2.5-2.7,3.3-4.4,1.2-3.7,1.2-5.8v-36.3h10.9v36.6c0,4.6-1.1,8.6-3.3,12s-5.2,6.1-9.1,8c-3.9,1.9-8.4,2.8-13.5,2.8h0Z"/>
        <path d="M306.6,154.3v-58.2h10.9l29.9,41v-41h10.9v58.2h-10.9l-29.9-41v41h-10.9Z"/>
        <path d="M349.6,154.3v-58.2h20.5c.5,0,1.6,0,3.2,0s3.1.1,4.6.3c5.1.6,9.4,2.2,13,4.9,3.5,2.7,6.2,6.1,8,10.2s2.7,8.7,2.7,13.6-.9,9.5-2.7,13.6c-1.8,4.1-4.5,7.6-8,10.2-3.5,2.7-7.9,4.3-13,4.9-1.5.2-3,.2-4.6.3s-2.7,0-3.2,0h-20.5ZM360.6,145.2h9.6c.9,0,2,0,3.4,0s2.6-.2,3.7-.4c3-.5,5.5-1.7,7.4-3.7,1.9-1.9,3.3-4.3,4.2-7.1s1.4-5.7,1.4-8.7-.5-6.1-1.4-8.9c-.9-2.8-2.4-5.1-4.3-7-1.9-1.9-4.4-3.1-7.4-3.6-1.1-.2-2.3-.3-3.7-.4s-2.5,0-3.4,0h-9.6v39.8h0Z"/>
        <path d="M439.5,155.5c-6.4,0-12-1.3-16.5-3.8-4.6-2.5-8.1-6.1-10.6-10.6s-3.7-9.8-3.7-15.8,1.2-11.3,3.7-15.8c2.5-4.6,6-8.1,10.6-10.6s10.1-3.8,16.5-3.8,12,1.3,16.6,3.8c4.6,2.6,8.1,6.1,10.6,10.6s3.7,9.8,3.7,15.8-1.2,11.3-3.7,15.8-6,8.1-10.6,10.6c-4.6,2.6-10.1,3.8-16.6,3.8ZM439.5,146.4c4.3,0,7.9-.8,10.8-2.6,2.9-1.8,5-4.2,6.5-7.4,1.5-3.2,2.2-6.9,2.2-11.2s-.7-7.9-2.2-11.1c-1.5-3.1-3.6-5.6-6.5-7.3s-6.5-2.7-10.8-2.7c-4.3,0-7.9.8-10.8,2.6s-5,4.2-6.5,7.4-2.2,6.9-2.2,11.2.7,7.9,2.1,11.1,3.6,5.6,6.5,7.3c2.9,1.8,6.5,2.6,10.8,2.7h0Z"/>
      </g>
      <path class="cls-2" d="M809.5,200.4c46.5-67.6-7.7-153.7-88.2-143.9-63.1,8-100,75.4-70.5,132.5,2,3.9,4.2,7.6,6.7,11.3-9.1-9.8-15.9-21.7-19.7-34.6-17.8-59.6,28.1-118.2,88.9-121.7,60.7-4.6,114.5,47.3,105.6,108.7-2.5,17.8-10.5,34.7-22.8,47.8h0Z"/>
      <path class="cls-1" d="M683,125"/>
      <g>
        <path class="cls-2" d="M687.3,58.4s3.9,1,3.9,2.9-1,2.9,1,3.9,5.8,1.9,3.9,3.9-5.8,5.8-6.8,5.8-5.8-2.9-4.9,1c0,0,7.8,2.9,5.8,3.9s-2.9,3.9-8.8,1.9c0,0-6.8,5.8-6.8,9.7s-4.9,7.8-4.9,7.8c0,0,1,6.8,0,6.8s-1-2.9-2.9-3.9-7.8-1-7.8,1.9,2.9,2.9,2.9,2.9c0,0,8.8,0,5.8,1.9s-6.8,6.8-4.9,7.8,5.8-1.9,4.9,1-1.9,6.8,0,6.8h4.9s1-4.9,3.9-2.9c2.9,1.9,1.9,1.9,1.9,1.9l4.9,1s4.9,1.9,5.8,3.9c0,0,8.8,0,7.8,6.8,0,0,4.9,0,5.8,3.9,0,0,20.4,0,8.8,11.7,0,0-1,12.6-2.9,12.6s-6.8,0-6.8,1.9-1,9.7-6.8,10.7c0,0,2.9,5.8-4.9,4.9,0,0-1,5.8-2.9,6.8,0,0,3.9,2.9,1.9,2.9s-1.4,1-2.9,1-3.9-1-3.9-1c0,0-1.9-1.9-1-2.9s-1-6.8-1-6.8c0,0-.7-4.7-1-10.7-.2-4.3,0-9.2,0-13.6,0,0-7.8-4.9-8.8-11.7,0,0-4.9-3.9,0-11.7v-5.8s-3.9,1.9-11.7-8.8c0,0-7.8-1-6.8-9.7,0,0-4.9,3.9-7.8,2.9s16.5-52.5,42.8-53.5h0Z"/>
        <path class="cls-2" d="M687.4,58.3c7.6,2.1,1.1,5.2,5.3,6.9l1.8.8c.9.4,2.1.8,2.3,2,0,.4-.2.8-.4,1-2.2,2.1-4.1,4.5-6.8,6.1-.4.2-.8,0-1.1-.1-1.1-.4-2.5-1.1-3.6-.7-.4.2-.3,1-.2,1.6l-.2-.2c2,.8,4.1,1.6,5.9,2.9.2.2.5.6.4,1-.2.5-.8.6-1.2.9-2.4,2.4-5.2,2.6-8.3,1.5h.3c-1.3,1.1-2.6,2.4-3.7,3.8-1.1,1.4-2.2,2.8-2.7,4.4-.3.9-.1,1.8-.4,2.6-.8,2.7-2.7,4.8-4.8,6.7v-.4c.4,2.1.8,4.3.5,6.4,0,.2-.2.7-.5.8-1.3.2-1.5-1.7-2-2.4-.5-1.2-1.5-1.7-2.7-1.9-1.8-.2-5.8-.3-5.7,2.2,0,1.6,1.6,2.4,3,2.3,1.2.1,6.5,0,6.3,1.8,0,.3-.2.5-.4.6-2.1,1.5-4,3.2-5.2,5.5-1.4,2.6.9,2.3,2.7,1.8.7-.1,1.6-.6,2.2.1.4.8,0,1.5-.2,2.2-.4,1.7-1.3,3.8-.7,5.4.2.4,1.2.2,1.5.3h3.9s-.3.2-.3.2c.4-1.5,1-3.4,2.8-3.6,1.3,0,2.1,1,3.1,1.7.3.3.9.7.5,1.1-.1.1-.2.1-.3.1v-.5s4.9,1,4.9,1c2.2,1,4.6,1.9,6,4h-.2c1,0,2,0,3,.3,3.1.7,5.6,3.3,5,6.6l-.2-.2c2.5,0,5.4,1.4,6,4h-.2c3.7,0,7.5.3,10.7,2.3,3.9,2.6.7,7.2-1.8,9.5,0,2.1-.5,5.9-1,8.5-.4,1.4-.5,3.1-1.6,4.1-.2.1-.5.2-.7.1-.3,0-1.3,0-1.6,0-1.4.2-3.9,0-4.7,1.4,0,1.7-.3,3.6-1,5.3-.9,2.8-3,5.5-6.1,5.9l.2-.5c1.3,2.6.4,5.3-2.8,5.4-.8,0-1.6,0-2.4,0l.4-.3c-.6,2.5-.9,5.5-3.1,7.1v-.7c1,.7,4.3,3.2,1.8,3.6,0,0-.3.1-.5.2-.2.1-.4.2-.7.3-1.9.9-4.1.1-6-.6-.8-.9-2-2.2-1.2-3.5.1-.1.2-.2.2-.4.2-2.1-.7-4.2-1.2-6.2-1.2-8.1-1.1-16.3-1-24.4l.2.4c-1.1-.7-2.1-1.5-3-2.3-2.8-2.6-5.4-5.8-6-9.7l.2.3c-3.6-3.2-2.5-8.8-.1-12.4v.3c0,0,0-5.8,0-5.8l.8.5c-2.8.8-5.3-1.4-7.3-3.1-1.9-1.8-3.5-3.8-5-5.8l.3.2c-2.3-.4-4.5-1.6-5.9-3.6-1.3-1.9-1.6-4.4-1.4-6.7l.8.4c-1.4,1.1-2.9,2-4.5,2.6-1.1.4-2.5.8-3.7.3-.8-.4-.5-1.4-.5-1.9,2.1-10,7.2-19.2,12.4-27.9,7.2-10.9,17-23.3,31.1-24.1h0ZM687.3,58.4c-19,1.3-33.2,26.5-39.7,42.4-1.2,3.1-2.4,6.3-2.9,9.6,0,.4,0,.8,0,1.1,0,0,0,0,0,0h.2c3,.4,5.7-1.8,8-3.6-.3,2.4-.3,5.1,1.1,7.1,1.2,1.8,3.3,2.9,5.4,3.2,2.3,3,6.9,9.3,11.2,8.8l.8-.3v6.7c-2.2,3.3-3.4,8.4,0,11.3.7,4.9,4.6,8.8,8.5,11.5l.2.2v.3c0,4.1-.2,8.1,0,12.2,0,3.9.5,8.4,1,12,.6,2.1,1.4,4.3,1.2,6.6,0,.2-.2.6-.4.8-.3.7.5,1.6,1,2.2h-.1c.8.3,1.7.6,2.6.7,1.2.3,2.2,0,3.2-.5.2,0,.4-.3.8-.3,0,0,.2,0,.2,0,0,0,0,.2,0,.1,0,0-.1-.3-.3-.4-.7-.8-1.7-1.6-2.5-2.2.7-.3,1.2-.7,1.6-1.5.9-1.7,1.4-3.7,1.7-5.6,3.4.6,6.7-.2,4.9-4.3l-.2-.4c3-.3,5.2-2.8,6.1-5.6.6-1.7.8-3.4,1-5.3.5-1.2,1.9-1.4,3-1.6,1.1-.1,2.2-.2,3.3-.2h.8c.6-.2.8-1.1,1-1.8,1-3.5,1.3-7.1,1.7-10.7,1.8-1.9,4.1-4.2,3.5-6.9-1.5-4-8.5-4.3-12.2-4.5-.5-2.7-3.4-3.9-5.9-3.9.9-4.7-3.7-6.8-7.7-6.8-1.2-2-3.9-3-5.8-3.9l-4.9-1v-.5s0,.1,0,.2c-.3-.5-.9-.8-1.3-1.2-2.3-2-3.6,0-4.1,2.3v.2h-4.2s-1,0-1,0c-1.4,0-1.6-1.7-1.4-2.6.2-1.7.7-3.2,1.2-4.8,0-.3,0-.6,0-.6,0,0-.3,0-.6,0-1.3.2-2.6.8-4,.4-2.1-.9-.2-3.5.6-4.7,1.4-1.9,2.7-2.8,4.4-4.2,0,0,0,0,0,0-.2-.1-.5-.2-.8-.3-1.8-.5-3.9-.4-5.8-.5-2.3-.2-3.9-3.4-2-5.1,1.1-.9,2.5-1.1,3.9-1.2,1.4,0,2.8,0,4,.8,1.5.9,1.5,2.7,2.4,3.7h0s0,0,0,0c0,0,0-.1,0-.2.2-2.1-.1-4.3-.3-6.4l.2-.2c1.9-1.7,3.8-3.7,4.6-6.2.2-.9,0-1.8.4-2.7,1.3-3.5,4-6.1,6.7-8.5h.1c0-.1.2,0,.2,0,2,.7,4.2,1.1,6,0,.9-.5,1.7-1.4,2.6-1.9,0,0,0,0,0-.1-.4-.7-1.3-1-2-1.4-1.3-.7-2.7-1.3-4.1-1.8-.2-.8-.4-1.7.4-2.3,1.4-.6,2.8.3,4.1.7.3,0,.6.2.8.1,2.5-1.5,4.5-3.8,6.7-5.8.2-.2.3-.5.3-.8-.2-.9-1.3-1.3-2.1-1.7l-1.8-.8c-4.4-1.9,2.3-4.9-5.2-7h0Z"/>
      </g>
      <g>
        <path class="cls-2" d="M760.1,54.2s1,13.6,2.9,10.7,3.9-1,3.9-1c0,0,1.9,9.7,3.9,5.8s1-5.8,1-5.8c0,0,9.7,2.9,7.8,4.9,0,0-3.9-1-3.9,3.9h-6.8s-3.9-4.9-10.7,1c0,0-6.8-7.8-6.8-10.7s-5.8,5.8-5.8,5.8c0,0-2.9,4.9,1.9,2.9s1.9,1,1.9,1c0,0-1,2.9,2.9,2.9s-1,1-1,1.9,3.9,2.9,3.9,4.9-5.8,3.9-8.8,1.9-3.9,13.6,2.9,9.7c0,0,1,2.9-1,3.9s-3.9,1-3.9,5.8c0,0-12.6,11.7-7.8,12.6v4.9h-1.9s3.9,14.6,10.7,16.5c0,0,3.9-2.9,5.8-1.9s3.9,1,8.8-1.9c0,0,1.9,2.9,7.8,2.9,0,0-1,4.9,0,7.8s4.9,7.8,4.9,7.8c0,0,0,5.8-1,6.8s-1.9,6.8,1,8.8c0,0,1,7.8,3.9,10.7v4.9s10.7,2.9,16.5-14.6c0,0,3.9-1,1.9-5.8,0,0,9.7-5.8,2.9-13.6v-2.9s13.6-9.7,9.7-18.5l-5.8,1s-1.9-8.8-7.8-17.5c0,0,0-3.9,1.9-1s4.9,7.8,7.8,15.6c0,0,9.7-4.9,8.8-7.8s-4.9-3.9-4.9-3.9c0,0-4.9-3.9-3.9-4.9s4.9,2.9,4.9,2.9l5.8,1.9s1.9,7.8,2.9,7.8,7.8,1,7.8-1-13.6-60.3-65.2-67.1h0ZM794.1,104.8s-9.7,0-11.7-3.9c0,0-3.9-1.9-3.9,2.9,0,0-7.8-3.9-10.7-8.8,0,0-3.9-1.9-16.5,1v-1.9s5.8-1.9,8.8-8.8c0,0,2.9,1,5.8-1,0,0,6.8,5.8,6.8,6.8s-2.9,1.9-2.9,1.9c0,0,0,1.9,1.9,1.9s5.8-2.9,4.9-3.9-1.9-2.9-1.9-2.9c0,0,1.9-2.9,2.9,0,0,0,0,5.8,4.9,8.8,0,0,1.9-1.9,0-6.8,0,0,2.9-1,2.9,2.9,0,0,0,4.9,8.8,4.9v6.8h0ZM797,89.2c-1.9,1-2.9,1-2.9,1,0,0-7.8-1-7.8-1.9s0-4.9,4.9-2.9c0,0,1.9,0,1-1.9s5.8,0,3.9,1.9c0,0,2.9,2.9,1,3.9h0Z"/>
        <g>
          <path class="cls-2" d="M760.1,54.3c.1.7,1.1,13.9,3,10.2.4-.6,1-1.1,1.8-1.3.7-.2,1.7.1,2.2.7.3,1.1,2.1,9.5,3.7,5.4.8-1.8,1.4-3.9.6-5.7,1.5.5,10.4,3,8.4,5.4h0c-.5,0-1.1,0-1.6.1-1.7.4-2.1,2.4-2.1,3.9h-7.1s-.1,0-.1,0h0c-3.2-3.4-7.6-1.5-10.5,1.1-1.9-2.2-3.7-4.4-5.2-6.8-.8-1.4-1.8-2.9-1.9-4.6,0,0,0,0,0,0,0,0,0,0,0,0-1.8,1.2-3,3.3-4.3,5-.8,1-1.6,2.2-1.7,3.4,0,1.3,2.1.2,2.8,0,2.3-1,4-.4,1.8,1.9v-.2c-.4,1.8,1.2,2.4,2.8,2.3.6,0,2.2,0,1.7,1-.1.2-.2.2-.2.2-.6.4-1.4.7-2,1.1-.2,0-.2.2-.2.1,0,0,0,.2.2.3,1.2,1.4,3.6,2.5,3.7,4.7-.3,1.7-2.4,2.4-3.9,2.8-1.7.4-3.7.4-5.3-.5-.4-.2-.5-.3-.7,0-2,2.5-1.5,12,3.5,9.1l.4-.2c.4,1.2.6,2.5,0,3.7-.4,1-1.7,1.4-2.6,1.8-2,.8-2.2,3.1-2.2,5-2,1.9-4,3.9-5.8,6-1.2,1.5-2.7,3.1-3.1,5.1-.1.8.4,1.1,1.1,1.2v5.3h-2.2l.3-.3c1.8,6,4.8,13.9,10.3,16.4,1.6-1.1,3.5-2.4,5.6-2.1.6.2,1.2.6,1.8.6,1.2.2,2.5-.1,3.7-.6,1.2-.5,2.4-1.2,3.6-1.9h0c1.8,2.3,4.9,3,7.6,3h.2v.2c-.5,2.7-.8,5.7.2,8.3,1.2,2.6,3,4.9,4.7,7.2,0,2.2,0,4.6-.8,6.7-1.6,2.2-1.6,7,.8,8.7h0c0,0,0,.2,0,.2.3,1.9.7,3.8,1.2,5.6.6,1.8,1.3,3.7,2.7,5h0c0,.1,0,5,0,5l-.2-.3c7.3,1.3,12.7-5.5,15.1-11.6l1-2.8v-.2c2.6-.7,2.9-3.3,1.9-5.4v-.3c0,0,.2-.2.2-.2,5-3.4,7.1-8.2,2.7-13.2h0v-3.3c5.1-4,12.5-10.9,9.7-18.1l.5.3-5.8,1h-.4c0,0,0-.4,0-.4-.4-1.5-.8-3.1-1.4-4.6-1.6-4.5-3.7-8.8-6.3-12.8,0-.1,0-.1,0-.3,0-1,.3-3.1,1.8-2.3.9.6,1.2,1.5,1.8,2.3,2.9,4.6,5.2,9.5,7.1,14.5l-.7-.3c1.4-.7,2.7-1.5,4-2.3,1.7-1.2,4-2.5,4.5-4.5,0-.7-.4-1.2-.8-1.7-1-1.2-2.5-1.8-3.9-2.3-1-.8-6.5-5.3-3.1-5.9,2,.4,3.3,2,4.8,3.2h-.2c0-.1,5.8,1.8,5.8,1.8h.2c.8,2.7,1.3,5.5,2.6,7.8,1.2,0,4.3.4,5.9.1.5,0,1.2-.3,1.2-.5,0,0,0-.3,0-.6,0-.3-.1-.6-.2-.9-7.8-31.4-30.7-61.3-64.4-65.7h0ZM760,54.2c34.3,3.8,57.8,34.7,65.6,66.5.8,3.3-5.8,2.2-7.5,2.1h-.4s-.2,0-.2,0c-.6-.1-.9-.7-1.1-1.1-1-2.3-1.6-4.7-2.2-7l.3.3-5.8-1.9c-.1,0-.1,0-.2-.1-1.2-1.1-2.6-2.6-4.2-2.9.7,1.7,2.5,2.9,3.8,4.2,2.2.4,7.4,3.8,3.9,7.2-2.4,2.4-5.3,4-8.3,5.6-2.2-5.7-4.9-12.2-8.7-16.8-.3.4-.3,1.1-.3,1.6v-.3c1.7,2.7,3.3,5.6,4.6,8.5,1.3,3,2.4,6,3.2,9.2l-.5-.4,5.8-1h.3c3.4,7.7-4.2,14.9-9.8,19.3l.2-.4v2.9-.3c.3.6.8,1.1,1.1,1.7,2.1,3.2,1.4,7-1.1,9.8-.9,1.1-2,2-3.2,2.7l.2-.5c.7,1.7.9,3.9-.5,5.3-.5.5-1,.8-1.7,1l.2-.2-1.1,2.8c-2.6,6.4-8.4,13.4-16.1,11.9v-5.1c-2.2-2.1-3.3-7.1-3.8-10.7v.2c-2.5-1.8-2.5-6.7-.9-9.1,1-1.9.8-4.5.9-6.7-1.4-1.7-3.5-4.6-4.6-7.1-1.1-2.7-.7-5.7-.2-8.5l.2.2c-2.8,0-6-.7-7.9-3h.2c-1.1.7-2.3,1.4-3.5,1.9-1.2.5-2.6.9-3.9.6-.7-.1-1.2-.4-1.9-.6-.6-.1-1.2,0-1.8.2-1.2.4-2.4,1.1-3.5,1.9h0c-6.1-2.3-9-11-10.9-16.7,0-.4-.2-.3.3-.3h1.9l-.3.3v-4.9l.2.3c-5.1-1.4,6-11.5,7.6-13.2v.2c-.2-2,.3-4.6,2.4-5.5l1.4-.6c1.4-.6,1.3-2.3.9-3.5l.5.2c-4.5,2.7-6-3-5.7-6.4.1-1.4.6-4.8,2.7-4,2.1,1.3,5.2.9,7.3-.3,1.8-1,.6-2.3-.6-3.4-1.6-1.4-4-2.8-.6-4.2l.6-.3c0,0,.2,0,.2-.1,0,0,0,0,0,0,0,0,0,.1,0,.2,0,0,0,.2.1.2-1.5-.1-4.1,0-4.6-2.1-.1-.5,0-1.1,0-1.6.2-.2.5-.5.7-.8,0-.1.1-.3.2-.3,0,0,0,0,0,0,0,0,0,0,0,0-1.3,0-2.5.8-3.8,1.1-3.5.4-1.2-4,0-5.3,1.4-1.8,2.6-3.8,4.5-5.2.7-.4,1.2.2,1.2.8.1,1.4,1,2.7,1.8,4,1.5,2.3,3.2,4.4,4.9,6.5h-.5c3.1-2.8,8-4.5,11.2-.9h-.2c0-.1,6.8-.1,6.8-.1l-.3.3c0-1.7.6-3.8,2.5-4.1.6-.1,1.2-.1,1.8,0h-.3c1.2-1.6-6.4-3.9-7.7-4.4l.3-.3c.7,2.3-.2,4.6-1.3,6.5-2.2,2.7-3.8-5.3-3.9-6.3-1.4-1.2-2.8-.4-3.7,1-2.2,2.5-2.9-9.7-3-10.9h0Z"/>
          <path class="cls-2" d="M794.1,104.8c-3.8,0-9.7-.2-12-3.8h.1c-1.8-.7-3.2,0-3.3,2,0,.3,0,1,0,1.4l-.5-.3c-4.2-2.2-8.3-4.8-10.9-8.9l.2.2c-1.1-.4-2.6-.6-3.9-.6-4.2-.1-8.3.5-12.4,1.4h-.2c0,0,0-.2,0-.2v-1.9s0-.1,0-.1c4-1.5,7.2-4.9,8.8-8.8,1.9.6,4.1.2,5.8-1h.2c0-.1.2,0,.2,0,2.1,1.8,4.3,3.6,6.2,5.6.3.4.6.7.8,1.2.2,1-1,1.5-1.5,1.9-.5.3-1,.5-1.6.7l.3-.4c.4,3.2,4.5.5,5.7-.9.2-.2.3-.4.3-.7,0,0,0,0,0,0,0,0,0,0-.1-.1-.9-1-1.5-2.1-2.1-3.2,1.1-1.9,3.2-2.8,4-.1.1,3.3,1.7,6.8,4.6,8.5h-.6c1.3-1.7.7-4.3,0-6.2l-.2-.5c.9-.3,1.9-.4,2.7.2,1,.8,1.1,1.9,1.2,3,.5,3.9,5.3,4.6,8.6,4.7v.2l-.2,6.8h0ZM794.1,104.8l-.2-6.8.2.2c-2.7,0-5.6-.2-7.7-2.2-.8-.8-1.4-1.7-1.4-2.9,0-1.5-.7-3-2.4-2.5l.3-.6c.5,1.1.8,2.3.9,3.6.1,1.4-.1,2.9-1.2,4.1-.9-.6-1.8-1.2-2.5-2-1.8-1.8-3-5.4-3-7.3,0-.2-.2-.6-.4-.7-.5-.6-1.3.4-1.6.8v-.5c.6,1,1.2,2.1,1.9,2.9,0,.1.2.2.2.4.2,1.2-1.1,2.1-1.9,2.8-2,1.6-6,2.6-6-1.2.9-.3,2.3-.8,2.9-1.5.1-.4-1.3-1.7-1.7-2.2-1.5-1.6-3.2-3.1-4.8-4.5h.3c-1.8,1.2-4,1.5-6,.9h.2c-1.7,3.8-4.9,7.1-8.9,8.8v-.2c.1,0,.1,1.9.1,1.9l-.2-.2c1.4-.3,2.7-.6,4.1-.9,4.2-.7,8.5-1.6,12.7-.3,2.6,3.8,6.6,6.6,10.7,8.8l-.6.3v-.8c.1-1.5,1.2-3,2.8-2.8.6,0,1.2.2,1.7.5h0c.4,1,1.3,1.6,2.2,2.1,2.8,1.4,6.1,1.8,9.2,2h0Z"/>
          <path class="cls-2" d="M797,89.3c-1,.4-1.9,1-2.9,1.2-1.3,0-2.6-.1-3.9-.4-1.4-.3-2.8-.6-4-1.5,0,0-.1-.3-.1-.4,0-3.8,2.6-4.2,5.1-3.3,1.1-.1.8-.8.5-1.5-.7-3.1,7.4-.2,4.7,2.2v-.6c.8,1.1,2.4,3.2.7,4.2h0ZM797,89.2c1.7-1.1-.6-3-1.5-3.8.2-.2.6-.7.4-.9-.6-.9-2.3-1.4-3.4-1.3,0,0,0,0,0,0,0,0,0,0,0,0,.7,1.3.2,2.6-1.4,2.6-.6-.1-1.2-.5-1.9-.6-2-.5-2.9,1.3-2.8,3.1,0,0,0,0,0,0,1.1.6,2.5.6,3.8.9,1.2.2,2.6.5,3.7.8,1,0,2-.4,2.9-.8h0Z"/>
        </g>
      </g>
    </g>
  </g>
</svg>